Hermit-Italic.ufo
<glyph name="exclam" format="1">
  <advance width="618"/>
  <unicode hex="0021"/>
  <note>
    exclam
  </note>
  <outline>
    <contour>
      <point x="354" y="250" type="line"/>
      <point x="442" y="750" type="line"/>
      <point x="352" y="750" type="line"/>
      <point x="264" y="250" type="line"/>
    </contour>
    <contour>
      <point x="297" y="-90"/>
      <point x="346" y="-48"/>
      <point x="354" y="-6" type="curve" smooth="yes"/>
      <point x="362" y="42"/>
      <point x="323" y="90"/>
      <point x="275" y="90" type="curve" smooth="yes"/>
      <point x="233" y="90"/>
      <point x="183" y="48"/>
      <point x="176" y="6" type="curve" smooth="yes"/>
      <point x="168" y="-42"/>
      <point x="207" y="-90"/>
      <point x="255" y="-90" type="curve" smooth="yes"/>
    </contour>
  </outline>
</glyph>
<glyph name="quotedbl" format="1">
  <advance width="618"/>
  <unicode hex="0022"/>
  <note>
    quotedbl
  </note>
  <outline>
    <contour>
      <point x="496" y="410"/>
      <point x="524" y="579"/>
      <point x="539" y="666" type="curve"/>
      <point x="540" y="669"/>
      <point x="550" y="750"/>
      <point x="502" y="750" type="curve" smooth="yes"/>
      <point x="462" y="750"/>
      <point x="452" y="681"/>
      <point x="451" y="675" type="curve" smooth="yes"/>
      <point x="449" y="663" type="line" smooth="yes"/>
      <point x="433" y="571"/>
      <point x="408" y="410"/>
      <point x="454" y="410" type="curve" smooth="yes"/>
    </contour>
    <contour>
      <point x="272" y="410"/>
      <point x="300" y="579"/>
      <point x="315" y="666" type="curve"/>
      <point x="316" y="669"/>
      <point x="326" y="750"/>
      <point x="278" y="750" type="curve" smooth="yes"/>
      <point x="238" y="750"/>
      <point x="228" y="681"/>
      <point x="227" y="675" type="curve" smooth="yes"/>
      <point x="225" y="663" type="line" smooth="yes"/>
      <point x="209" y="571"/>
      <point x="184" y="410"/>
      <point x="230" y="410" type="curve" smooth="yes"/>
    </contour>
  </outline>
</glyph>
<glyph name="ampersand" format="1">
  <advance width="618"/>
  <unicode hex="0026"/>
  <note>
    ampersand
  </note>
  <outline>
    <contour>
      <point x="344" y="0"/>
      <point x="375" y="10"/>
      <point x="410" y="39" type="curve"/>
      <point x="409" y="29"/>
      <point x="409" y="15"/>
      <point x="406" y="3" type="curve"/>
      <point x="495" y="-3" type="line"/>
      <point x="503" y="38"/>
      <point x="494" y="78"/>
      <point x="480" y="114" type="curve"/>
      <point x="512" y="165"/>
      <point x="536" y="228"/>
      <point x="550" y="309" type="curve"/>
      <point x="461" y="312" type="line"/>
      <point x="453" y="265" type="line" smooth="yes"/>
      <point x="449" y="246"/>
      <point x="445" y="225"/>
      <point x="436" y="202" type="curve"/>
      <point x="349" y="329"/>
      <point x="201" y="439"/>
      <point x="211" y="494" type="curve" smooth="yes"/>
      <point x="226" y="581"/>
      <point x="317" y="584"/>
      <point x="329" y="584" type="curve" smooth="yes"/>
      <point x="336" y="584"/>
      <point x="414" y="587"/>
      <point x="400" y="503" type="curve"/>
      <point x="489" y="497" type="line"/>
      <point x="489" y="497"/>
      <point x="517" y="674"/>
      <point x="332" y="674" type="curve" smooth="yes"/>
      <point x="150" y="674"/>
      <point x="122" y="497"/>
      <point x="122" y="500" type="curve"/>
      <point x="116" y="465"/>
      <point x="133" y="425"/>
      <point x="158" y="390" type="curve"/>
      <point x="122" y="362"/>
      <point x="91" y="323"/>
      <point x="79" y="256" type="curve" smooth="yes"/>
      <point x="44" y="55"/>
      <point x="86" y="0"/>
      <point x="317" y="0" type="curve" smooth="yes"/>
    </contour>
    <contour>
      <point x="156" y="90"/>
      <point x="143" y="107"/>
      <point x="167" y="244" type="curve" smooth="yes"/>
      <point x="176" y="296"/>
      <point x="187" y="312"/>
      <point x="211" y="328" type="curve"/>
      <point x="270" y="262"/>
      <point x="351" y="194"/>
      <point x="387" y="119" type="curve"/>
      <point x="369" y="102"/>
      <point x="348" y="90"/>
      <point x="321" y="90" type="curve" smooth="yes"/>
    </contour>
  </outline>
</glyph>
<glyph name="parenleft" format="1">
  <advance width="618"/>
  <unicode hex="0028"/>
  <note>
    parenleft
  </note>
  <outline>
    <contour>
      <point x="454" y="0" type="line"/>
      <point x="162" y="0"/>
      <point x="221" y="323"/>
      <point x="221" y="324" type="curve" smooth="yes"/>
      <point x="222" y="331"/>
      <point x="284" y="660"/>
      <point x="576" y="660" type="curve"/>
      <point x="586" y="750" type="line"/>
      <point x="203" y="750"/>
      <point x="131" y="327"/>
      <point x="130" y="324" type="curve" smooth="yes"/>
      <point x="131" y="327"/>
      <point x="61" y="-90"/>
      <point x="444" y="-90" type="curve"/>
    </contour>
  </outline>
</glyph>
<glyph name="slash" format="1">
  <advance width="618"/>
  <unicode hex="002F"/>
  <note>
    slash
  </note>
  <outline>
    <contour>
      <point x="154" y="-90" type="line"/>
      <point x="590" y="750" type="line"/>
      <point x="492" y="750" type="line"/>
      <point x="56" y="-90" type="line"/>
    </contour>
  </outline>
</glyph>
<glyph name="one" format="1">
  <advance width="618"/>
  <unicode hex="0031"/>
  <note>
    one
  </note>
  <outline>
    <contour>
      <point x="401" y="0" type="line"/>
      <point x="533" y="750" type="line"/>
      <point x="420" y="750" type="line"/>
      <point x="103" y="396" type="line"/>
      <point x="215" y="396" type="line"/>
      <point x="422" y="625" type="line"/>
      <point x="311" y="0" type="line"/>
    </contour>
  </outline>
</glyph>
<glyph name="three" format="1">
  <advance width="618"/>
  <unicode hex="0033"/>
  <note>
    three
  </note>
  <outline>
    <contour>
      <point x="408" y="0"/>
      <point x="513" y="99"/>
      <point x="534" y="216" type="curve" smooth="yes"/>
      <point x="555" y="337"/>
      <point x="494" y="366"/>
      <point x="475" y="393" type="curve"/>
      <point x="509" y="426"/>
      <point x="555" y="465"/>
      <point x="569" y="546" type="curve" smooth="yes"/>
      <point x="591" y="669"/>
      <point x="534" y="750"/>
      <point x="391" y="750" type="curve" smooth="yes"/>
      <point x="254" y="750"/>
      <point x="175" y="675"/>
      <point x="154" y="555" type="curve"/>
      <point x="243" y="549" type="line"/>
      <point x="255" y="619"/>
      <point x="314" y="660"/>
      <point x="388" y="660" type="curve" smooth="yes"/>
      <point x="454" y="660"/>
      <point x="494" y="625"/>
      <point x="482" y="558" type="curve" smooth="yes"/>
      <point x="469" y="485"/>
      <point x="410" y="444"/>
      <point x="340" y="444" type="curve"/>
      <point x="331" y="354" type="line"/>
      <point x="420" y="354"/>
      <point x="461" y="315"/>
      <point x="446" y="228" type="curve" smooth="yes"/>
      <point x="430" y="135"/>
      <point x="368" y="90"/>
      <point x="275" y="90" type="curve" smooth="yes"/>
      <point x="188" y="90"/>
      <point x="147" y="129"/>
      <point x="163" y="219" type="curve"/>
      <point x="74" y="225" type="line"/>
      <point x="52" y="105"/>
      <point x="128" y="0"/>
      <point x="271" y="0" type="curve" smooth="yes"/>
    </contour>
  </outline>
</glyph>
<glyph name="five" format="1">
  <advance width="618"/>
  <unicode hex="0035"/>
  <note>
    five
  </note>
  <outline>
    <contour>
      <point x="267" y="0" type="line" smooth="yes"/>
      <point x="409" y="0"/>
      <point x="515" y="109"/>
      <point x="536" y="226" type="curve" smooth="yes"/>
      <point x="562" y="375"/>
      <point x="485" y="465"/>
      <point x="343" y="465" type="curve" smooth="yes"/>
      <point x="206" y="465" type="line"/>
      <point x="240" y="660" type="line"/>
      <point x="546" y="660" type="line"/>
      <point x="562" y="750" type="line"/>
      <point x="166" y="750" type="line"/>
      <point x="100" y="375" type="line"/>
      <point x="333" y="375" type="line" smooth="yes"/>
      <point x="433" y="375"/>
      <point x="462" y="320"/>
      <point x="448" y="238" type="curve" smooth="yes"/>
      <point x="432" y="150"/>
      <point x="367" y="90"/>
      <point x="277" y="90" type="curve" smooth="yes"/>
      <point x="50" y="90" type="line"/>
      <point x="34" y="0" type="line"/>
    </contour>
  </outline>
</glyph>
<glyph name="six" format="1">
  <advance width="618"/>
  <unicode hex="0036"/>
  <note>
    six
  </note>
  <outline>
    <contour>
      <point x="408" y="0"/>
      <point x="511" y="87"/>
      <point x="536" y="226" type="curve" smooth="yes"/>
      <point x="561" y="371"/>
      <point x="484" y="465"/>
      <point x="341" y="465" type="curve" smooth="yes"/>
      <point x="290" y="465"/>
      <point x="224" y="441"/>
      <point x="196" y="414" type="curve"/>
      <point x="236" y="596"/>
      <point x="301" y="660"/>
      <point x="388" y="660" type="curve" smooth="yes"/>
      <point x="474" y="660"/>
      <point x="483" y="621"/>
      <point x="481" y="605" type="curve"/>
      <point x="570" y="599" type="line"/>
      <point x="582" y="667"/>
      <point x="534" y="750"/>
      <point x="391" y="750" type="curve" smooth="yes"/>
      <point x="254" y="750"/>
      <point x="151" y="663"/>
      <point x="101" y="378" type="curve" smooth="yes"/>
      <point x="75" y="235" type="line" smooth="yes"/>
      <point x="50" y="93"/>
      <point x="128" y="0"/>
      <point x="271" y="0" type="curve" smooth="yes"/>
    </contour>
    <contour>
      <point x="188" y="90"/>
      <point x="148" y="139"/>
      <point x="164" y="226" type="curve" smooth="yes"/>
      <point x="180" y="319"/>
      <point x="244" y="375"/>
      <point x="337" y="375" type="curve" smooth="yes"/>
      <point x="424" y="375"/>
      <point x="463" y="325"/>
      <point x="448" y="238" type="curve" smooth="yes"/>
      <point x="432" y="145"/>
      <point x="368" y="90"/>
      <point x="275" y="90" type="curve" smooth="yes"/>
    </contour>
  </outline>
</glyph>
<glyph name="eight" format="1">
  <advance width="618"/>
  <unicode hex="0038"/>
  <note>
    eight
  </note>
  <outline>
    <contour>
      <point x="408" y="0"/>
      <point x="513" y="99"/>
      <point x="534" y="216" type="curve" smooth="yes"/>
      <point x="555" y="337"/>
      <point x="493" y="366"/>
      <point x="474" y="393" type="curve"/>
      <point x="508" y="426"/>
      <point x="556" y="465"/>
      <point x="570" y="546" type="curve" smooth="yes"/>
      <point x="592" y="669"/>
      <point x="534" y="750"/>
      <point x="391" y="750" type="curve" smooth="yes"/>
      <point x="254" y="750"/>
      <point x="175" y="675"/>
      <point x="154" y="558" type="curve" smooth="yes"/>
      <point x="139" y="471"/>
      <point x="176" y="430"/>
      <point x="195" y="403" type="curve"/>
      <point x="161" y="370"/>
      <point x="95" y="344"/>
      <point x="74" y="228" type="curve" smooth="yes"/>
      <point x="52" y="105"/>
      <point x="128" y="0"/>
      <point x="271" y="0" type="curve" smooth="yes"/>
    </contour>
    <contour>
      <point x="188" y="90"/>
      <point x="147" y="129"/>
      <point x="162" y="216" type="curve" smooth="yes"/>
      <point x="178" y="309"/>
      <point x="240" y="354"/>
      <point x="334" y="354" type="curve" smooth="yes"/>
      <point x="420" y="354"/>
      <point x="461" y="315"/>
      <point x="446" y="228" type="curve" smooth="yes"/>
      <point x="430" y="135"/>
      <point x="368" y="90"/>
      <point x="275" y="90" type="curve" smooth="yes"/>
    </contour>
    <contour>
      <point x="270" y="444"/>
      <point x="230" y="479"/>
      <point x="242" y="546" type="curve" smooth="yes"/>
      <point x="255" y="619"/>
      <point x="314" y="660"/>
      <point x="388" y="660" type="curve" smooth="yes"/>
      <point x="454" y="660"/>
      <point x="494" y="625"/>
      <point x="482" y="558" type="curve" smooth="yes"/>
      <point x="469" y="485"/>
      <point x="410" y="444"/>
      <point x="337" y="444" type="curve" smooth="yes"/>
    </contour>
  </outline>
</glyph>
<glyph name="nine" format="1">
  <advance width="618"/>
  <unicode hex="0039"/>
  <note>
    nine
  </note>
  <outline>
    <contour>
      <point x="496" y="0" type="line"/>
      <point x="587" y="515" type="line" smooth="yes"/>
      <point x="612" y="657"/>
      <point x="534" y="750"/>
      <point x="391" y="750" type="curve" smooth="yes"/>
      <point x="254" y="750"/>
      <point x="151" y="663"/>
      <point x="126" y="524" type="curve" smooth="yes"/>
      <point x="101" y="379"/>
      <point x="178" y="285"/>
      <point x="321" y="285" type="curve" smooth="yes"/>
      <point x="374" y="285"/>
      <point x="439" y="310"/>
      <point x="467" y="334" type="curve"/>
      <point x="406" y="0" type="line"/>
    </contour>
    <contour>
      <point x="238" y="375"/>
      <point x="199" y="425"/>
      <point x="214" y="512" type="curve" smooth="yes"/>
      <point x="231" y="605"/>
      <point x="294" y="660"/>
      <point x="388" y="660" type="curve" smooth="yes"/>
      <point x="474" y="660"/>
      <point x="514" y="611"/>
      <point x="498" y="524" type="curve" smooth="yes"/>
      <point x="482" y="431"/>
      <point x="418" y="375"/>
      <point x="325" y="375" type="curve" smooth="yes"/>
    </contour>
  </outline>
</glyph>
<glyph name="semicolon" format="1">
  <advance width="618"/>
  <unicode hex="003B"/>
  <note>
    semicolon
  </note>
  <outline>
    <contour>
      <point x="286" y="-160"/>
      <point x="352" y="-15"/>
      <point x="370" y="84" type="curve" smooth="yes"/>
      <point x="378" y="132"/>
      <point x="339" y="180"/>
      <point x="290" y="180" type="curve" smooth="yes"/>
      <point x="249" y="180"/>
      <point x="199" y="138"/>
      <point x="192" y="96" type="curve" smooth="yes"/>
      <point x="184" y="51"/>
      <point x="219" y="7"/>
      <point x="260" y="4" type="curve"/>
      <point x="213" y="-108"/>
      <point x="142" y="-144"/>
      <point x="140" y="-151" type="curve" smooth="yes"/>
      <point x="139" y="-156"/>
      <point x="144" y="-160"/>
      <point x="154" y="-160" type="curve" smooth="yes"/>
    </contour>
    <contour>
      <point x="373" y="338"/>
      <point x="422" y="380"/>
      <point x="429" y="422" type="curve" smooth="yes"/>
      <point x="438" y="470"/>
      <point x="398" y="518"/>
      <point x="350" y="518" type="curve" smooth="yes"/>
      <point x="308" y="518"/>
      <point x="259" y="476"/>
      <point x="251" y="434" type="curve" smooth="yes"/>
      <point x="243" y="386"/>
      <point x="283" y="338"/>
      <point x="331" y="338" type="curve" smooth="yes"/>
    </contour>
  </outline>
</glyph>
<glyph name="at" format="1">
  <advance width="618"/>
  <unicode hex="0040"/>
  <note>
    at
  </note>
  <outline>
    <contour>
      <point x="358" y="0"/>
      <point x="495" y="-3"/>
      <point x="524" y="157" type="curve"/>
      <point x="435" y="163" type="line"/>
      <point x="422" y="93"/>
      <point x="326" y="90"/>
      <point x="280" y="90" type="curve" smooth="yes"/>
      <point x="278" y="90" type="line" smooth="yes"/>
      <point x="188" y="90"/>
      <point x="152" y="157"/>
      <point x="189" y="369" type="curve" smooth="yes"/>
      <point x="227" y="587"/>
      <point x="294" y="660"/>
      <point x="384" y="660" type="curve" smooth="yes"/>
      <point x="386" y="660" type="line" smooth="yes"/>
      <point x="432" y="660"/>
      <point x="523" y="663"/>
      <point x="511" y="593" type="curve" smooth="yes"/>
      <point x="498" y="522" type="line"/>
      <point x="474" y="522" type="line" smooth="yes"/>
      <point x="334" y="522"/>
      <point x="264" y="504"/>
      <point x="242" y="381" type="curve" smooth="yes"/>
      <point x="222" y="266"/>
      <point x="288" y="228"/>
      <point x="428" y="228" type="curve" smooth="yes"/>
      <point x="536" y="228" type="line"/>
      <point x="599" y="587" type="line" smooth="yes"/>
      <point x="628" y="747"/>
      <point x="484" y="750"/>
      <point x="391" y="750" type="curve" smooth="yes"/>
      <point x="254" y="750"/>
      <point x="151" y="663"/>
      <point x="101" y="381" type="curve" smooth="yes"/>
      <point x="50" y="93"/>
      <point x="128" y="0"/>
      <point x="271" y="0" type="curve" smooth="yes"/>
    </contour>
    <contour>
      <point x="363" y="318"/>
      <point x="321" y="316"/>
      <point x="330" y="369" type="curve" smooth="yes"/>
      <point x="340" y="428"/>
      <point x="402" y="432"/>
      <point x="458" y="432" type="curve" smooth="yes"/>
      <point x="482" y="432" type="line"/>
      <point x="462" y="318" type="line"/>
      <point x="435" y="318" type="line" smooth="yes"/>
    </contour>
  </outline>
</glyph>
<glyph name="A" format="1">
  <advance width="618"/>
  <unicode hex="0041"/>
  <note>
    A
  </note>
  <outline>
    <contour>
      <point x="128" y="0" type="line"/>
      <point x="214" y="205" type="line"/>
      <point x="390" y="205" type="line"/>
      <point x="404" y="0" type="line"/>
      <point x="495" y="0" type="line"/>
      <point x="444" y="750" type="line"/>
      <point x="348" y="750" type="line"/>
      <point x="33" y="0" type="line"/>
    </contour>
    <contour>
      <point x="366" y="564" type="line"/>
      <point x="384" y="295" type="line"/>
      <point x="252" y="295" type="line"/>
    </contour>
    <contour>
      <point x="495" y="0" type="move" name="ogonek"/>
    </contour>
    <contour>
      <point x="265" y="0" type="move" name="bottom"/>
    </contour>
    <contour>
      <point x="397" y="750" type="move" name="top"/>
    </contour>
  </outline>
</glyph>
<glyph name="I" format="1">
  <advance width="618"/>
  <unicode hex="0049"/>
  <note>
    I
  </note>
  <outline>
    <contour>
      <point x="476" y="0" type="line"/>
      <point x="492" y="90" type="line"/>
      <point x="326" y="90" type="line"/>
      <point x="426" y="660" type="line"/>
      <point x="592" y="660" type="line"/>
      <point x="608" y="750" type="line"/>
      <point x="186" y="750" type="line"/>
      <point x="170" y="660" type="line"/>
      <point x="336" y="660" type="line"/>
      <point x="236" y="90" type="line"/>
      <point x="70" y="90" type="line"/>
      <point x="54" y="0" type="line"/>
    </contour>
    <contour>
      <point x="476" y="0" type="move" name="ogonek"/>
    </contour>
    <contour>
      <point x="397" y="750" type="move" name="top"/>
    </contour>
    <contour>
      <point x="108" y="750" type="move" name="topleft"/>
    </contour>
    <contour>
      <point x="265" y="0" type="move" name="bottom"/>
    </contour>
  </outline>
</glyph>
<glyph name="M" format="1">
  <advance width="618"/>
  <unicode hex="004D"/>
  <note>
    M
  </note>
  <outline>
    <contour>
      <point x="124" y="0" type="line"/>
      <point x="225" y="568" type="line"/>
      <point x="282" y="375" type="line"/>
      <point x="384" y="375" type="line"/>
      <point x="507" y="568" type="line"/>
      <point x="406" y="0" type="line"/>
      <point x="496" y="0" type="line"/>
      <point x="628" y="750" type="line"/>
      <point x="528" y="750" type="line"/>
      <point x="348" y="476" type="line"/>
      <point x="265" y="750" type="line"/>
      <point x="166" y="750" type="line"/>
      <point x="34" y="0" type="line"/>
    </contour>
    <contour>
      <point x="397" y="750" type="move" name="top"/>
    </contour>
    <contour>
      <point x="265" y="0" type="move" name="bottom"/>
    </contour>
  </outline>
</glyph>
<glyph name="O" format="1">
  <advance width="618"/>
  <unicode hex="004F"/>
  <note>
    O
  </note>
  <outline>
    <contour>
      <point x="409" y="0"/>
      <point x="495" y="-3"/>
      <point x="561" y="369" type="curve" smooth="yes"/>
      <point x="628" y="747"/>
      <point x="535" y="750"/>
      <point x="392" y="750" type="curve" smooth="yes"/>
      <point x="255" y="750"/>
      <point x="167" y="753"/>
      <point x="101" y="381" type="curve" smooth="yes"/>
      <point x="34" y="3"/>
      <point x="129" y="0"/>
      <point x="272" y="0" type="curve" smooth="yes"/>
    </contour>
    <contour>
      <point x="189" y="90"/>
      <point x="139" y="87"/>
      <point x="189" y="369" type="curve" smooth="yes"/>
      <point x="240" y="657"/>
      <point x="295" y="660"/>
      <point x="389" y="660" type="curve" smooth="yes"/>
      <point x="475" y="660"/>
      <point x="523" y="663"/>
      <point x="473" y="381" type="curve" smooth="yes"/>
      <point x="422" y="93"/>
      <point x="369" y="90"/>
      <point x="276" y="90" type="curve" smooth="yes"/>
    </contour>
    <contour>
      <point x="265" y="0" type="move" name="bottom"/>
    </contour>
    <contour>
      <point x="513" y="10" type="move" name="ogonek"/>
    </contour>
    <contour>
      <point x="397" y="750" type="move" name="top"/>
    </contour>
    <contour>
      <point x="685" y="750" type="move" name="topright"/>
    </contour>
    <contour>
      <point x="108" y="750" type="move" name="topleft"/>
    </contour>
    <contour>
      <point x="331" y="375" type="move" name="center"/>
    </contour>
  </outline>
</glyph>
<glyph name="Q" format="1">
  <advance width="618"/>
  <unicode hex="0051"/>
  <note>
    Q
  </note>
  <outline>
    <contour>
      <point x="301" y="0"/>
      <point x="342" y="16"/>
      <point x="383" y="49" type="curve"/>
      <point x="398" y="0" type="line"/>
      <point x="495" y="0" type="line"/>
      <point x="456" y="127" type="line"/>
      <point x="505" y="191"/>
      <point x="544" y="274"/>
      <point x="561" y="369" type="curve" smooth="yes"/>
      <point x="628" y="747"/>
      <point x="534" y="750"/>
      <point x="391" y="750" type="curve" smooth="yes"/>
      <point x="254" y="750"/>
      <point x="167" y="753"/>
      <point x="101" y="381" type="curve" smooth="yes"/>
      <point x="34" y="3"/>
      <point x="128" y="0"/>
      <point x="271" y="0" type="curve" smooth="yes"/>
    </contour>
    <contour>
      <point x="188" y="90"/>
      <point x="139" y="87"/>
      <point x="189" y="369" type="curve" smooth="yes"/>
      <point x="240" y="657"/>
      <point x="294" y="660"/>
      <point x="388" y="660" type="curve" smooth="yes"/>
      <point x="474" y="660"/>
      <point x="523" y="663"/>
      <point x="473" y="381" type="curve" smooth="yes"/>
      <point x="462" y="316"/>
      <point x="447" y="264"/>
      <point x="429" y="222" type="curve"/>
      <point x="408" y="285" type="line"/>
      <point x="311" y="288" type="line"/>
      <point x="337" y="202"/>
      <point x="337" y="207"/>
      <point x="361" y="123" type="curve"/>
      <point x="335" y="100"/>
      <point x="306" y="90"/>
      <point x="275" y="90" type="curve" smooth="yes"/>
    </contour>
    <contour>
      <point x="397" y="750" type="move" name="top"/>
    </contour>
    <contour>
      <point x="265" y="0" type="move" name="bottom"/>
    </contour>
  </outline>
</glyph>
<glyph name="S" format="1">
  <advance width="618"/>
  <unicode hex="0053"/>
  <note>
    S
  </note>
  <outline>
    <contour>
      <point x="408" y="0"/>
      <point x="495" y="-3"/>
      <point x="536" y="226" type="curve" smooth="yes"/>
      <point x="567" y="403"/>
      <point x="527" y="442"/>
      <point x="337" y="442" type="curve" smooth="yes"/>
      <point x="219" y="442"/>
      <point x="201" y="439"/>
      <point x="222" y="556" type="curve" smooth="yes"/>
      <point x="240" y="657"/>
      <point x="294" y="660"/>
      <point x="388" y="660" type="curve" smooth="yes"/>
      <point x="501" y="660"/>
      <point x="522" y="656"/>
      <point x="507" y="573" type="curve"/>
      <point x="596" y="567" type="line"/>
      <point x="622" y="713"/>
      <point x="534" y="750"/>
      <point x="391" y="750" type="curve" smooth="yes"/>
      <point x="254" y="750"/>
      <point x="167" y="753"/>
      <point x="134" y="568" type="curve" smooth="yes"/>
      <point x="97" y="355"/>
      <point x="190" y="352"/>
      <point x="333" y="352" type="curve" smooth="yes"/>
      <point x="457" y="352"/>
      <point x="468" y="351"/>
      <point x="448" y="238" type="curve" smooth="yes"/>
      <point x="422" y="93"/>
      <point x="368" y="90"/>
      <point x="275" y="90" type="curve" smooth="yes"/>
      <point x="168" y="90"/>
      <point x="141" y="99"/>
      <point x="155" y="177" type="curve"/>
      <point x="66" y="183" type="line"/>
      <point x="34" y="3"/>
      <point x="128" y="0"/>
      <point x="271" y="0" type="curve" smooth="yes"/>
    </contour>
    <contour>
      <point x="397" y="750" type="move" name="top"/>
    </contour>
    <contour>
      <point x="265" y="0" type="move" name="bottom"/>
    </contour>
  </outline>
</glyph>
<glyph name="U" format="1">
  <advance width="618"/>
  <unicode hex="0055"/>
  <note>
    U
  </note>
  <outline>
    <contour>
      <point x="498" y="0"/>
      <point x="495" y="-3"/>
      <point x="536" y="227" type="curve" smooth="yes"/>
      <point x="628" y="750" type="line"/>
      <point x="538" y="750" type="line"/>
      <point x="447" y="233" type="line" smooth="yes"/>
      <point x="422" y="93"/>
      <point x="418" y="90"/>
      <point x="275" y="90" type="curve" smooth="yes"/>
      <point x="138" y="90"/>
      <point x="165" y="233"/>
      <point x="165" y="233" type="curve"/>
      <point x="256" y="750" type="line"/>
      <point x="166" y="750" type="line"/>
      <point x="75" y="233" type="line"/>
      <point x="75" y="233"/>
      <point x="38" y="0"/>
      <point x="271" y="0" type="curve" smooth="yes"/>
    </contour>
    <contour>
      <point x="456" y="22" type="move" name="ogonek"/>
    </contour>
    <contour>
      <point x="397" y="750" type="move" name="top"/>
    </contour>
    <contour>
      <point x="685" y="750" type="move" name="topright"/>
    </contour>
    <contour>
      <point x="265" y="0" type="move" name="bottom"/>
    </contour>
  </outline>
</glyph>
<glyph name="X" format="1">
  <advance width="618"/>
  <unicode hex="0058"/>
  <note>
    X
  </note>
  <outline>
    <contour>
      <point x="135" y="0" type="line"/>
      <point x="315" y="272" type="line"/>
      <point x="398" y="0" type="line"/>
      <point x="495" y="0" type="line"/>
      <point x="381" y="375" type="line"/>
      <point x="629" y="750" type="line"/>
      <point x="528" y="750" type="line"/>
      <point x="347" y="478" type="line"/>
      <point x="265" y="750" type="line"/>
      <point x="167" y="750" type="line"/>
      <point x="281" y="375" type="line"/>
      <point x="33" y="0" type="line"/>
    </contour>
    <contour>
      <point x="397" y="750" type="move" name="top"/>
    </contour>
    <contour>
      <point x="265" y="0" type="move" name="bottom"/>
    </contour>
  </outline>
</glyph>
<glyph name="bracketleft" format="1">
  <advance width="618"/>
  <unicode hex="005B"/>
  <note>
    bracketleft
  </note>
  <outline>
    <contour>
      <point x="441" y="-90" type="line"/>
      <point x="457" y="0" type="line"/>
      <point x="163" y="0" type="line"/>
      <point x="279" y="660" type="line"/>
      <point x="573" y="660" type="line"/>
      <point x="589" y="750" type="line"/>
      <point x="205" y="750" type="line"/>
      <point x="57" y="-90" type="line"/>
    </contour>
  </outline>
</glyph>
<glyph name="b" format="1">
  <advance width="618"/>
  <unicode hex="0062"/>
  <note>
    b
  </note>
  <outline>
    <contour>
      <point x="268" y="0" type="line" smooth="yes"/>
      <point x="498" y="0"/>
      <point x="541" y="253"/>
      <point x="541" y="256" type="curve" smooth="yes"/>
      <point x="541" y="253"/>
      <point x="580" y="500"/>
      <point x="350" y="500" type="curve" smooth="yes"/>
      <point x="212" y="500" type="line"/>
      <point x="256" y="750" type="line"/>
      <point x="166" y="750" type="line"/>
      <point x="34" y="0" type="line"/>
    </contour>
    <contour>
      <point x="196" y="410" type="line"/>
      <point x="340" y="410" type="line" smooth="yes"/>
      <point x="480" y="410"/>
      <point x="449" y="247"/>
      <point x="449" y="244" type="curve" smooth="yes"/>
      <point x="449" y="247"/>
      <point x="418" y="90"/>
      <point x="278" y="90" type="curve" smooth="yes"/>
      <point x="140" y="90" type="line"/>
    </contour>
    <contour>
      <point x="353" y="500" type="move" name="top"/>
    </contour>
    <contour>
      <point x="265" y="0" type="move" name="bottom"/>
    </contour>
  </outline>
</glyph>
<glyph name="d" format="1">
  <advance width="618"/>
  <unicode hex="0064"/>
  <note>
    d
  </note>
  <outline>
    <contour>
      <point x="496" y="0" type="line"/>
      <point x="628" y="750" type="line"/>
      <point x="538" y="750" type="line"/>
      <point x="494" y="500" type="line"/>
      <point x="349" y="500" type="line" smooth="yes"/>
      <point x="119" y="500"/>
      <point x="77" y="247"/>
      <point x="77" y="244" type="curve" smooth="yes"/>
      <point x="77" y="247"/>
      <point x="37" y="0"/>
      <point x="267" y="0" type="curve" smooth="yes"/>
    </contour>
    <contour>
      <point x="137" y="90"/>
      <point x="169" y="253"/>
      <point x="169" y="256" type="curve" smooth="yes"/>
      <point x="169" y="253"/>
      <point x="199" y="410"/>
      <point x="339" y="410" type="curve" smooth="yes"/>
      <point x="478" y="410" type="line"/>
      <point x="422" y="90" type="line"/>
      <point x="277" y="90" type="line" smooth="yes"/>
    </contour>
    <contour>
      <point x="265" y="0" type="move" name="bottom"/>
    </contour>
    <contour>
      <point x="375" y="625" type="move" name="top"/>
    </contour>
    <contour>
      <point x="641" y="500" type="move" name="topright"/>
    </contour>
    <contour>
      <point x="462" y="250" type="move" name="center"/>
    </contour>
  </outline>
</glyph>
<glyph name="e" format="1">
  <advance width="618"/>
  <unicode hex="0065"/>
  <note>
    e
  </note>
  <outline>
    <contour>
      <point x="451" y="0" type="line"/>
      <point x="467" y="90" type="line"/>
      <point x="278" y="90" type="line" smooth="yes"/>
      <point x="188" y="90"/>
      <point x="139" y="87"/>
      <point x="160" y="202" type="curve"/>
      <point x="532" y="205" type="line"/>
      <point x="539" y="247" type="line" smooth="yes"/>
      <point x="584" y="497"/>
      <point x="490" y="500"/>
      <point x="347" y="500" type="curve" smooth="yes"/>
      <point x="210" y="500"/>
      <point x="123" y="503"/>
      <point x="79" y="256" type="curve" smooth="yes"/>
      <point x="34" y="3"/>
      <point x="128" y="0"/>
      <point x="268" y="0" type="curve" smooth="yes"/>
    </contour>
    <contour>
      <point x="196" y="407"/>
      <point x="250" y="410"/>
      <point x="343" y="410" type="curve" smooth="yes"/>
      <point x="430" y="410"/>
      <point x="479" y="413"/>
      <point x="458" y="298" type="curve"/>
      <point x="175" y="292" type="line"/>
    </contour>
    <contour>
      <point x="450" y="0" type="move" name="ogonek"/>
    </contour>
    <contour>
      <point x="265" y="0" type="move" name="bottom"/>
    </contour>
    <contour>
      <point x="353" y="500" type="move" name="top"/>
    </contour>
  </outline>
</glyph>
<glyph name="g" format="1">
  <advance width="618"/>
  <unicode hex="0067"/>
  <note>
    g
  </note>
  <outline>
    <contour>
      <point x="440" y="-250"/>
      <point x="480" y="-91"/>
      <point x="487" y="-48" type="curve" smooth="yes"/>
      <point x="539" y="247" type="line" smooth="yes"/>
      <point x="584" y="497"/>
      <point x="490" y="500"/>
      <point x="347" y="500" type="curve" smooth="yes"/>
      <point x="210" y="500"/>
      <point x="123" y="503"/>
      <point x="79" y="256" type="curve" smooth="yes"/>
      <point x="34" y="3"/>
      <point x="128" y="0"/>
      <point x="271" y="0" type="curve" smooth="yes"/>
      <point x="408" y="0"/>
      <point x="408" y="13"/>
      <point x="408" y="13" type="curve"/>
      <point x="399" y="-42" type="line" smooth="yes"/>
      <point x="382" y="-138"/>
      <point x="309" y="-160"/>
      <point x="230" y="-160" type="curve" smooth="yes"/>
      <point x="154" y="-160"/>
      <point x="116" y="-138"/>
      <point x="75" y="-116" type="curve"/>
      <point x="26" y="-189" type="line"/>
      <point x="84" y="-220"/>
      <point x="149" y="-250"/>
      <point x="227" y="-250" type="curve" smooth="yes"/>
    </contour>
    <contour>
      <point x="188" y="90"/>
      <point x="139" y="87"/>
      <point x="167" y="244" type="curve" smooth="yes"/>
      <point x="196" y="407"/>
      <point x="250" y="410"/>
      <point x="343" y="410" type="curve" smooth="yes"/>
      <point x="430" y="410"/>
      <point x="479" y="413"/>
      <point x="451" y="256" type="curve" smooth="yes"/>
      <point x="422" y="93"/>
      <point x="368" y="90"/>
      <point x="275" y="90" type="curve" smooth="yes"/>
    </contour>
    <contour>
      <point x="353" y="500" type="move" name="top"/>
    </contour>
    <contour>
      <point x="265" y="0" type="move" name="bottom"/>
    </contour>
  </outline>
</glyph>
<glyph name="k" format="1">
  <advance width="618"/>
  <unicode hex="006B"/>
  <note>
    k
  </note>
  <outline>
    <contour>
      <point x="145" y="0" type="line"/>
      <point x="298" y="172" type="line"/>
      <point x="388" y="0" type="line"/>
      <point x="495" y="0" type="line"/>
      <point x="365" y="250" type="line"/>
      <point x="585" y="500" type="line"/>
      <point x="474" y="500" type="line"/>
      <point x="145" y="128" type="line"/>
      <point x="256" y="750" type="line"/>
      <point x="166" y="750" type="line"/>
      <point x="34" y="0" type="line"/>
    </contour>
    <contour>
      <point x="353" y="500" type="move" name="top"/>
    </contour>
    <contour>
      <point x="265" y="0" type="move" name="bottom"/>
    </contour>
  </outline>
</glyph>
<glyph name="l" format="1">
  <advance width="618"/>
  <unicode hex="006C"/>
  <note>
    l
  </note>
  <outline>
    <contour>
      <point x="496" y="0" type="line"/>
      <point x="512" y="90" type="line"/>
      <point x="326" y="90" type="line"/>
      <point x="442" y="750" type="line"/>
      <point x="262" y="750" type="line"/>
      <point x="246" y="660" type="line"/>
      <point x="336" y="660" type="line"/>
      <point x="236" y="90" type="line"/>
      <point x="50" y="90" type="line"/>
      <point x="34" y="0" type="line"/>
    </contour>
    <contour>
      <point x="264" y="0" type="move" name="bottom"/>
    </contour>
    <contour>
      <point x="396" y="750" type="move" name="top"/>
    </contour>
    <contour>
      <point x="641" y="500" type="move" name="topright"/>
    </contour>
    <contour>
      <point x="444" y="500" type="move" name="topcaroncombalt"/>
    </contour>
    <contour>
      <point x="352" y="500" type="move" name="center"/>
    </contour>
  </outline>
</glyph>
<glyph name="m" format="1">
  <advance width="618"/>
  <unicode hex="006D"/>
  <note>
    m
  </note>
  <outline>
    <contour>
      <point x="120" y="0" type="line"/>
      <point x="167" y="267" type="line" smooth="yes"/>
      <point x="192" y="407"/>
      <point x="202" y="410"/>
      <point x="297" y="410" type="curve"/>
      <point x="222" y="0" type="line"/>
      <point x="308" y="0" type="line"/>
      <point x="383" y="410" type="line"/>
      <point x="478" y="410"/>
      <point x="483" y="413"/>
      <point x="459" y="281" type="curve" smooth="yes"/>
      <point x="410" y="0" type="line"/>
      <point x="496" y="0" type="line"/>
      <point x="543" y="267" type="line" smooth="yes"/>
      <point x="584" y="497"/>
      <point x="580" y="500"/>
      <point x="346" y="500" type="curve" smooth="yes"/>
      <point x="119" y="500"/>
      <point x="122" y="502"/>
      <point x="82" y="273" type="curve" smooth="yes"/>
      <point x="34" y="0" type="line"/>
    </contour>
    <contour>
      <point x="353" y="500" type="move" name="top"/>
    </contour>
    <contour>
      <point x="265" y="0" type="move" name="bottom"/>
    </contour>
  </outline>
</glyph>
<glyph name="q" format="1">
  <advance width="618"/>
  <unicode hex="0071"/>
  <note>
    q
  </note>
  <outline>
    <contour>
      <point x="452" y="-250" type="line"/>
      <point x="584" y="500" type="line"/>
      <point x="350" y="500" type="line" smooth="yes"/>
      <point x="120" y="500"/>
      <point x="77" y="247"/>
      <point x="77" y="244" type="curve" smooth="yes"/>
      <point x="77" y="247"/>
      <point x="38" y="0"/>
      <point x="268" y="0" type="curve" smooth="yes"/>
      <point x="406" y="0" type="line"/>
      <point x="362" y="-250" type="line"/>
    </contour>
    <contour>
      <point x="138" y="90"/>
      <point x="169" y="253"/>
      <point x="169" y="256" type="curve" smooth="yes"/>
      <point x="169" y="253"/>
      <point x="200" y="410"/>
      <point x="340" y="410" type="curve" smooth="yes"/>
      <point x="478" y="410" type="line"/>
      <point x="422" y="90" type="line"/>
      <point x="278" y="90" type="line" smooth="yes"/>
    </contour>
    <contour>
      <point x="353" y="500" type="move" name="top"/>
    </contour>
    <contour>
      <point x="265" y="0" type="move" name="bottom"/>
    </contour>
  </outline>
</glyph>
<glyph name="r" format="1">
  <advance width="618"/>
  <unicode hex="0072"/>
  <note>
    r
  </note>
  <outline>
    <contour>
      <point x="124" y="0" type="line"/>
      <point x="167" y="247" type="line" smooth="yes"/>
      <point x="196" y="407"/>
      <point x="200" y="410"/>
      <point x="340" y="410" type="curve" smooth="yes"/>
      <point x="342" y="410" type="line" smooth="yes"/>
      <point x="388" y="410"/>
      <point x="479" y="413"/>
      <point x="466" y="343" type="curve"/>
      <point x="555" y="337" type="line"/>
      <point x="584" y="497"/>
      <point x="440" y="500"/>
      <point x="347" y="500" type="curve" smooth="yes"/>
      <point x="120" y="500"/>
      <point x="123" y="503"/>
      <point x="79" y="253" type="curve" smooth="yes"/>
      <point x="34" y="0" type="line"/>
    </contour>
    <contour>
      <point x="353" y="500" type="move" name="top"/>
    </contour>
    <contour>
      <point x="265" y="0" type="move" name="bottom"/>
    </contour>
  </outline>
</glyph>
<glyph name="s" format="1">
  <advance width="618"/>
  <unicode hex="0073"/>
  <note>
    s
  </note>
  <outline>
    <contour>
      <point x="408" y="0"/>
      <point x="495" y="-3"/>
      <point x="521" y="142" type="curve" smooth="yes"/>
      <point x="547" y="291"/>
      <point x="423" y="295"/>
      <point x="318" y="295" type="curve" smooth="yes"/>
      <point x="305" y="295" type="line" smooth="yes"/>
      <point x="221" y="295"/>
      <point x="176" y="293"/>
      <point x="185" y="346" type="curve" smooth="yes"/>
      <point x="196" y="407"/>
      <point x="250" y="410"/>
      <point x="343" y="410" type="curve" smooth="yes"/>
      <point x="430" y="410"/>
      <point x="479" y="413"/>
      <point x="469" y="355" type="curve"/>
      <point x="557" y="349" type="line"/>
      <point x="584" y="497"/>
      <point x="490" y="500"/>
      <point x="347" y="500" type="curve" smooth="yes"/>
      <point x="210" y="500"/>
      <point x="123" y="503"/>
      <point x="97" y="358" type="curve" smooth="yes"/>
      <point x="71" y="209"/>
      <point x="195" y="205"/>
      <point x="300" y="205" type="curve" smooth="yes"/>
      <point x="313" y="205" type="line" smooth="yes"/>
      <point x="397" y="205"/>
      <point x="442" y="207"/>
      <point x="433" y="154" type="curve" smooth="yes"/>
      <point x="422" y="93"/>
      <point x="368" y="90"/>
      <point x="275" y="90" type="curve" smooth="yes"/>
      <point x="188" y="90"/>
      <point x="139" y="87"/>
      <point x="149" y="145" type="curve"/>
      <point x="61" y="151" type="line"/>
      <point x="34" y="3"/>
      <point x="128" y="0"/>
      <point x="271" y="0" type="curve" smooth="yes"/>
    </contour>
    <contour>
      <point x="353" y="500" type="move" name="top"/>
    </contour>
    <contour>
      <point x="265" y="0" type="move" name="bottom"/>
    </contour>
  </outline>
</glyph>
<glyph name="t" format="1">
  <advance width="618"/>
  <unicode hex="0074"/>
  <note>
    t
  </note>
  <outline>
    <contour>
      <point x="446" y="0" type="line"/>
      <point x="459" y="90" type="line"/>
      <point x="220" y="90"/>
      <point x="195" y="121"/>
      <point x="217" y="247" type="curve" smooth="yes"/>
      <point x="246" y="410" type="line"/>
      <point x="518" y="410" type="line"/>
      <point x="534" y="500" type="line"/>
      <point x="262" y="500" type="line"/>
      <point x="306" y="750" type="line"/>
      <point x="206" y="750" type="line"/>
      <point x="119" y="253" type="line" smooth="yes"/>
      <point x="86" y="66"/>
      <point x="138" y="0"/>
      <point x="309" y="0" type="curve" smooth="yes"/>
    </contour>
    <contour>
      <point x="221" y="0" type="move" name="bottom"/>
    </contour>
    <contour>
      <point x="397" y="500" type="move" name="top"/>
    </contour>
    <contour>
      <point x="685" y="500" type="move" name="topright"/>
    </contour>
    <contour>
      <point x="309" y="250" type="move" name="center"/>
    </contour>
  </outline>
</glyph>
<glyph name="u" format="1">
  <advance width="618"/>
  <unicode hex="0075"/>
  <note>
    u
  </note>
  <outline>
    <contour>
      <point x="498" y="0"/>
      <point x="495" y="-3"/>
      <point x="536" y="227" type="curve" smooth="yes"/>
      <point x="584" y="500" type="line"/>
      <point x="494" y="500" type="line"/>
      <point x="447" y="233" type="line" smooth="yes"/>
      <point x="422" y="93"/>
      <point x="418" y="90"/>
      <point x="275" y="90" type="curve" smooth="yes"/>
      <point x="138" y="90"/>
      <point x="165" y="233"/>
      <point x="165" y="233" type="curve"/>
      <point x="212" y="500" type="line"/>
      <point x="122" y="500" type="line"/>
      <point x="75" y="233" type="line"/>
      <point x="75" y="233"/>
      <point x="38" y="0"/>
      <point x="271" y="0" type="curve" smooth="yes"/>
    </contour>
    <contour>
      <point x="434" y="12" type="move" name="ogonek"/>
    </contour>
    <contour>
      <point x="353" y="500" type="move" name="top"/>
    </contour>
    <contour>
      <point x="641" y="500" type="move" name="topright"/>
    </contour>
    <contour>
      <point x="265" y="0" type="move" name="bottom"/>
    </contour>
  </outline>
</glyph>
<glyph name="x" format="1">
  <advance width="618"/>
  <unicode hex="0078"/>
  <note>
    x
  </note>
  <outline>
    <contour>
      <point x="145" y="0" type="line"/>
      <point x="298" y="172" type="line"/>
      <point x="387" y="0" type="line"/>
      <point x="494" y="0" type="line"/>
      <point x="364" y="250" type="line"/>
      <point x="584" y="500" type="line"/>
      <point x="473" y="500" type="line"/>
      <point x="320" y="328" type="line"/>
      <point x="231" y="500" type="line"/>
      <point x="123" y="500" type="line"/>
      <point x="254" y="250" type="line"/>
      <point x="33" y="0" type="line"/>
    </contour>
    <contour>
      <point x="353" y="500" type="move" name="top"/>
    </contour>
    <contour>
      <point x="265" y="0" type="move" name="bottom"/>
    </contour>
  </outline>
</glyph>
<glyph name="bar" format="1">
  <advance width="618"/>
  <unicode hex="007C"/>
  <note>
    bar
  </note>
  <outline>
    <contour>
      <point x="294" y="-90" type="line"/>
      <point x="442" y="750" type="line"/>
      <point x="352" y="750" type="line"/>
      <point x="204" y="-90" type="line"/>
    </contour>
  </outline>
</glyph>
<glyph name="braceright" format="1">
  <advance width="618"/>
  <unicode hex="007D"/>
  <note>
    braceright
  </note>
  <outline>
    <contour>
      <point x="206" y="-90"/>
      <point x="293" y="-93"/>
      <point x="334" y="136" type="curve" smooth="yes"/>
      <point x="359" y="281"/>
      <point x="364" y="285"/>
      <point x="510" y="285" type="curve"/>
      <point x="520" y="375" type="line"/>
      <point x="374" y="375"/>
      <point x="376" y="373"/>
      <point x="400" y="512" type="curve" smooth="yes"/>
      <point x="442" y="747"/>
      <point x="348" y="750"/>
      <point x="202" y="750" type="curve"/>
      <point x="193" y="660" type="line"/>
      <point x="338" y="660"/>
      <point x="337" y="663"/>
      <point x="312" y="524" type="curve" smooth="yes"/>
      <point x="295" y="423"/>
      <point x="286" y="366"/>
      <point x="297" y="336" type="curve"/>
      <point x="271" y="300"/>
      <point x="263" y="243"/>
      <point x="246" y="148" type="curve" smooth="yes"/>
      <point x="220" y="3"/>
      <point x="216" y="0"/>
      <point x="70" y="0" type="curve"/>
      <point x="60" y="-90" type="line"/>
    </contour>
  </outline>
</glyph>
<glyph name="asciitilde" format="1">
  <advance width="618"/>
  <unicode hex="007E"/>
  <note>
    asciitilde
  </note>
  <outline>
    <contour>
      <point x="539" y="240"/>
      <point x="565" y="375"/>
      <point x="565" y="375" type="curve"/>
      <point x="473" y="378" type="line"/>
      <point x="473" y="378"/>
      <point x="460" y="330"/>
      <point x="410" y="330" type="curve" smooth="yes"/>
      <point x="365" y="330"/>
      <point x="381" y="420"/>
      <point x="240" y="420" type="curve" smooth="yes"/>
      <point x="105" y="420"/>
      <point x="81" y="285"/>
      <point x="81" y="285" type="curve"/>
      <point x="174" y="282" type="line"/>
      <point x="174" y="282"/>
      <point x="185" y="330"/>
      <point x="235" y="330" type="curve" smooth="yes"/>
      <point x="281" y="330"/>
      <point x="265" y="240"/>
      <point x="407" y="240" type="curve" smooth="yes"/>
    </contour>
  </outline>
</glyph>
<glyph name="sterling" format="1">
  <advance width="618"/>
  <unicode hex="00A3"/>
  <note>
    sterling
  </note>
  <outline>
    <contour>
      <point x="496" y="0" type="line"/>
      <point x="512" y="90" type="line"/>
      <point x="164" y="90" type="line"/>
      <point x="198" y="285" type="line"/>
      <point x="408" y="285" type="line"/>
      <point x="424" y="375" type="line"/>
      <point x="214" y="375" type="line"/>
      <point x="243" y="542" type="line" smooth="yes"/>
      <point x="260" y="638"/>
      <point x="333" y="660"/>
      <point x="412" y="660" type="curve" smooth="yes"/>
      <point x="488" y="660"/>
      <point x="526" y="638"/>
      <point x="567" y="616" type="curve"/>
      <point x="616" y="689" type="line"/>
      <point x="558" y="720"/>
      <point x="493" y="750"/>
      <point x="415" y="750" type="curve" smooth="yes"/>
      <point x="202" y="750"/>
      <point x="162" y="591"/>
      <point x="155" y="548" type="curve" smooth="yes"/>
      <point x="73" y="90" type="line"/>
      <point x="33" y="0" type="line"/>
    </contour>
  </outline>
</glyph>
<glyph name="currency" format="1">
  <advance width="618"/>
  <unicode hex="00A4"/>
  <outline>
    <contour>
      <point x="179" y="101" type="line"/>
      <point x="225" y="75"/>
      <point x="279" y="73"/>
      <point x="278" y="73" type="curve" smooth="yes"/>
      <point x="277" y="73"/>
      <point x="336" y="73"/>
      <point x="392" y="99" type="curve"/>
      <point x="471" y="0" type="line"/>
      <point x="543" y="63" type="line"/>
      <point x="467" y="155" type="line"/>
      <point x="492" y="182"/>
      <point x="510" y="219"/>
      <point x="518" y="265" type="curve" smooth="yes"/>
      <point x="527" y="317"/>
      <point x="519" y="354"/>
      <point x="505" y="382" type="curve"/>
      <point x="616" y="479" type="line"/>
      <point x="562" y="542" type="line"/>
      <point x="445" y="442" type="line"/>
      <point x="399" y="468"/>
      <point x="351" y="469"/>
      <point x="348" y="469" type="curve" smooth="yes"/>
      <point x="344" y="469"/>
      <point x="291" y="470"/>
      <point x="233" y="443" type="curve"/>
      <point x="150" y="542" type="line"/>
      <point x="78" y="479" type="line"/>
      <point x="157" y="387" type="line"/>
      <point x="132" y="359"/>
      <point x="116" y="322"/>
      <point x="108" y="277" type="curve" smooth="yes"/>
      <point x="99" y="226"/>
      <point x="106" y="189"/>
      <point x="120" y="162" type="curve"/>
      <point x="5" y="63" type="line"/>
      <point x="59" y="0" type="line"/>
    </contour>
    <contour>
      <point x="289" y="156"/>
      <point x="176" y="154"/>
      <point x="196" y="265" type="curve" smooth="yes"/>
      <point x="216" y="382"/>
      <point x="330" y="386"/>
      <point x="333" y="386" type="curve" smooth="yes"/>
      <point x="336" y="386"/>
      <point x="449" y="388"/>
      <point x="430" y="277" type="curve" smooth="yes"/>
      <point x="409" y="160"/>
      <point x="296" y="156"/>
      <point x="292" y="156" type="curve" smooth="yes"/>
    </contour>
  </outline>
</glyph>
<glyph name="brokenbar" format="1">
  <advance width="618"/>
  <unicode hex="00A6"/>
  <note>
    brokenbar
  </note>
  <outline>
    <contour>
      <point x="384" y="420" type="line"/>
      <point x="442" y="750" type="line"/>
      <point x="352" y="750" type="line"/>
      <point x="294" y="420" type="line"/>
    </contour>
    <contour>
      <point x="294" y="-90" type="line"/>
      <point x="352" y="240" type="line"/>
      <point x="262" y="240" type="line"/>
      <point x="204" y="-90" type="line"/>
    </contour>
  </outline>
</glyph>
<glyph name="section" format="1">
  <advance width="618"/>
  <unicode hex="00A7"/>
  <note>
    section
  </note>
  <outline>
    <contour>
      <point x="364" y="-250"/>
      <point x="451" y="-253"/>
      <point x="484" y="-68" type="curve" smooth="yes"/>
      <point x="502" y="33"/>
      <point x="488" y="85"/>
      <point x="460" y="111" type="curve"/>
      <point x="500" y="141"/>
      <point x="528" y="183"/>
      <point x="539" y="244" type="curve" smooth="yes"/>
      <point x="573" y="439"/>
      <point x="480" y="442"/>
      <point x="337" y="442" type="curve" smooth="yes"/>
      <point x="250" y="442"/>
      <point x="201" y="439"/>
      <point x="222" y="556" type="curve" smooth="yes"/>
      <point x="240" y="657"/>
      <point x="294" y="660"/>
      <point x="388" y="660" type="curve" smooth="yes"/>
      <point x="474" y="660"/>
      <point x="522" y="656"/>
      <point x="507" y="573" type="curve"/>
      <point x="596" y="567" type="line"/>
      <point x="622" y="713"/>
      <point x="534" y="750"/>
      <point x="391" y="750" type="curve" smooth="yes"/>
      <point x="254" y="750"/>
      <point x="167" y="753"/>
      <point x="134" y="568" type="curve" smooth="yes"/>
      <point x="119" y="482"/>
      <point x="125" y="432"/>
      <point x="144" y="405" type="curve"/>
      <point x="111" y="374"/>
      <point x="92" y="328"/>
      <point x="79" y="256" type="curve" smooth="yes"/>
      <point x="45" y="61"/>
      <point x="138" y="58"/>
      <point x="281" y="58" type="curve" smooth="yes"/>
      <point x="368" y="58"/>
      <point x="417" y="61"/>
      <point x="396" y="-56" type="curve" smooth="yes"/>
      <point x="378" y="-157"/>
      <point x="324" y="-160"/>
      <point x="230" y="-160" type="curve" smooth="yes"/>
      <point x="144" y="-160"/>
      <point x="96" y="-156"/>
      <point x="111" y="-73" type="curve"/>
      <point x="22" y="-67" type="line"/>
      <point x="-4" y="-213"/>
      <point x="84" y="-250"/>
      <point x="227" y="-250" type="curve" smooth="yes"/>
    </contour>
    <contour>
      <point x="198" y="146"/>
      <point x="149" y="143"/>
      <point x="167" y="244" type="curve" smooth="yes"/>
      <point x="185" y="349"/>
      <point x="240" y="352"/>
      <point x="333" y="352" type="curve" smooth="yes"/>
      <point x="420" y="352"/>
      <point x="469" y="355"/>
      <point x="451" y="256" type="curve" smooth="yes"/>
      <point x="435" y="166"/>
      <point x="378" y="146"/>
      <point x="284" y="146" type="curve" smooth="yes"/>
    </contour>
  </outline>
</glyph>
<glyph name="copyright" format="1">
  <advance width="618"/>
  <unicode hex="00A9"/>
  <note>
    copyright
  </note>
  <outline>
    <contour>
      <point x="576" y="0"/>
      <point x="629" y="311"/>
      <point x="629" y="314" type="curve" smooth="yes"/>
      <point x="629" y="311"/>
      <point x="679" y="617"/>
      <point x="367" y="617" type="curve" smooth="yes"/>
      <point x="63" y="617"/>
      <point x="10" y="305"/>
      <point x="9" y="302" type="curve" smooth="yes"/>
      <point x="10" y="305"/>
      <point x="-40" y="0"/>
      <point x="271" y="0" type="curve" smooth="yes"/>
    </contour>
    <contour>
      <point x="296" y="142" type="line" smooth="yes"/>
      <point x="356" y="142"/>
      <point x="447" y="140"/>
      <point x="465" y="246" type="curve"/>
      <point x="393" y="252" type="line"/>
      <point x="385" y="205"/>
      <point x="334" y="201"/>
      <point x="294" y="201" type="curve" smooth="yes"/>
      <point x="224" y="201"/>
      <point x="214" y="245"/>
      <point x="224" y="302" type="curve" smooth="yes"/>
      <point x="235" y="365"/>
      <point x="268" y="416"/>
      <point x="345" y="416" type="curve" smooth="yes"/>
      <point x="378" y="416"/>
      <point x="423" y="419"/>
      <point x="415" y="372" type="curve"/>
      <point x="486" y="366" type="line"/>
      <point x="505" y="472"/>
      <point x="409" y="476"/>
      <point x="349" y="476" type="curve" smooth="yes"/>
      <point x="346" y="476" type="line" smooth="yes"/>
      <point x="231" y="476"/>
      <point x="172" y="419"/>
      <point x="153" y="314" type="curve" smooth="yes"/>
      <point x="134" y="203"/>
      <point x="178" y="142"/>
      <point x="293" y="142" type="curve" smooth="yes"/>
    </contour>
    <contour>
      <point x="53" y="84"/>
      <point x="95" y="311"/>
      <point x="95" y="314" type="curve" smooth="yes"/>
      <point x="95" y="311"/>
      <point x="138" y="534"/>
      <point x="365" y="534" type="curve" smooth="yes"/>
      <point x="586" y="534"/>
      <point x="545" y="305"/>
      <point x="544" y="302" type="curve" smooth="yes"/>
      <point x="545" y="305"/>
      <point x="501" y="84"/>
      <point x="273" y="84" type="curve" smooth="yes"/>
    </contour>
  </outline>
</glyph>
<glyph name="guillemetleft" format="1">
  <advance width="618"/>
  <unicode hex="00AB"/>
  <note>
    guillemotleft
  </note>
  <outline>
    <contour>
      <point x="527" y="182" type="line"/>
      <point x="431" y="330" type="line"/>
      <point x="581" y="478" type="line"/>
      <point x="597" y="580" type="line"/>
      <point x="330" y="375" type="line"/>
      <point x="316" y="285" type="line"/>
      <point x="511" y="80" type="line"/>
    </contour>
    <contour>
      <point x="296" y="182" type="line"/>
      <point x="200" y="330" type="line"/>
      <point x="350" y="478" type="line"/>
      <point x="366" y="580" type="line"/>
      <point x="99" y="375" type="line"/>
      <point x="85" y="285" type="line"/>
      <point x="280" y="80" type="line"/>
    </contour>
  </outline>
</glyph>
<glyph name="logicalnot" format="1">
  <advance width="618"/>
  <unicode hex="00AC"/>
  <note>
    logicalnot
  </note>
  <outline>
    <contour>
      <point x="518" y="125" type="line"/>
      <point x="562" y="375" type="line"/>
      <point x="100" y="375" type="line"/>
      <point x="84" y="285" type="line"/>
      <point x="456" y="285" type="line"/>
      <point x="428" y="125" type="line"/>
    </contour>
  </outline>
</glyph>
<glyph name="uni00AD" format="1">
  <advance width="618"/>
  <unicode hex="00AD"/>
  <note>
    uni00AD
  </note>
  <outline>
    <contour>
      <point x="507" y="285" type="line"/>
      <point x="523" y="375" type="line"/>
      <point x="139" y="375" type="line"/>
      <point x="123" y="285" type="line"/>
    </contour>
  </outline>
</glyph>
<glyph name="degree" format="1">
  <advance width="618"/>
  <unicode hex="00B0"/>
  <note>
    degree
  </note>
  <outline>
    <contour>
      <point x="338" y="375"/>
      <point x="523" y="373"/>
      <point x="555" y="556" type="curve" smooth="yes"/>
      <point x="589" y="747"/>
      <point x="400" y="750"/>
      <point x="397" y="750" type="curve" smooth="yes"/>
      <point x="394" y="750"/>
      <point x="206" y="753"/>
      <point x="173" y="568" type="curve" smooth="yes"/>
      <point x="140" y="379"/>
      <point x="330" y="375"/>
      <point x="337" y="375" type="curve" smooth="yes"/>
    </contour>
    <contour>
      <point x="343" y="458"/>
      <point x="243" y="455"/>
      <point x="261" y="556" type="curve" smooth="yes"/>
      <point x="280" y="663"/>
      <point x="379" y="667"/>
      <point x="383" y="667" type="curve" smooth="yes"/>
      <point x="386" y="667"/>
      <point x="485" y="669"/>
      <point x="467" y="568" type="curve" smooth="yes"/>
      <point x="448" y="461"/>
      <point x="349" y="458"/>
      <point x="346" y="458" type="curve" smooth="yes"/>
    </contour>
  </outline>
</glyph>
<glyph name="plusminus" format="1">
  <advance width="618"/>
  <unicode hex="00B1"/>
  <note>
    plusminus
  </note>
  <outline>
    <contour>
      <point x="368" y="330" type="line"/>
      <point x="392" y="468" type="line"/>
      <point x="578" y="468" type="line"/>
      <point x="594" y="558" type="line"/>
      <point x="408" y="558" type="line"/>
      <point x="433" y="696" type="line"/>
      <point x="343" y="696" type="line"/>
      <point x="318" y="558" type="line"/>
      <point x="132" y="558" type="line"/>
      <point x="116" y="468" type="line"/>
      <point x="302" y="468" type="line"/>
      <point x="278" y="330" type="line"/>
    </contour>
    <contour>
      <point x="522" y="150" type="line"/>
      <point x="538" y="240" type="line"/>
      <point x="76" y="240" type="line"/>
      <point x="60" y="150" type="line"/>
    </contour>
  </outline>
</glyph>
<glyph name="uni00B2" format="1">
  <advance width="618"/>
  <unicode hex="00B2"/>
  <note>
    uni00B2
  </note>
  <outline>
    <contour>
      <point x="486" y="300" type="line"/>
      <point x="499" y="376" type="line"/>
      <point x="324" y="374" type="line" smooth="yes"/>
      <point x="324" y="374"/>
      <point x="522" y="505"/>
      <point x="538" y="594" type="curve" smooth="yes"/>
      <point x="550" y="662"/>
      <point x="561" y="750"/>
      <point x="390" y="750" type="curve" smooth="yes"/>
      <point x="225" y="750"/>
      <point x="215" y="675"/>
      <point x="202" y="603" type="curve"/>
      <point x="290" y="597" type="line"/>
      <point x="298" y="639"/>
      <point x="305" y="661"/>
      <point x="387" y="661" type="curve" smooth="yes"/>
      <point x="463" y="661"/>
      <point x="458" y="646"/>
      <point x="451" y="606" type="curve" smooth="yes"/>
      <point x="437" y="529"/>
      <point x="162" y="373"/>
      <point x="162" y="373" type="curve"/>
      <point x="149" y="300" type="line"/>
    </contour>
  </outline>
</glyph>
<glyph name="uni00B3" format="1">
  <advance width="618"/>
  <unicode hex="00B3"/>
  <note>
    uni00B3
  </note>
  <outline>
    <contour>
      <point x="424" y="300"/>
      <point x="493" y="335"/>
      <point x="509" y="427" type="curve" smooth="yes"/>
      <point x="522" y="500"/>
      <point x="476" y="518"/>
      <point x="462" y="535" type="curve"/>
      <point x="487" y="556"/>
      <point x="520" y="577"/>
      <point x="528" y="624" type="curve" smooth="yes"/>
      <point x="541" y="699"/>
      <point x="497" y="750"/>
      <point x="391" y="750" type="curve" smooth="yes"/>
      <point x="291" y="750"/>
      <point x="237" y="705"/>
      <point x="225" y="633" type="curve"/>
      <point x="312" y="627" type="line"/>
      <point x="318" y="658"/>
      <point x="333" y="661"/>
      <point x="388" y="661" type="curve" smooth="yes"/>
      <point x="436" y="661"/>
      <point x="447" y="664"/>
      <point x="442" y="636" type="curve" smooth="yes"/>
      <point x="434" y="591"/>
      <point x="415" y="577"/>
      <point x="364" y="577" type="curve"/>
      <point x="357" y="502" type="line"/>
      <point x="422" y="502"/>
      <point x="431" y="490"/>
      <point x="422" y="439" type="curve" smooth="yes"/>
      <point x="414" y="392"/>
      <point x="395" y="389"/>
      <point x="327" y="389" type="curve" smooth="yes"/>
      <point x="265" y="389"/>
      <point x="253" y="386"/>
      <point x="261" y="430" type="curve"/>
      <point x="173" y="436" type="line"/>
      <point x="157" y="347"/>
      <point x="218" y="300"/>
      <point x="324" y="300" type="curve" smooth="yes"/>
    </contour>
  </outline>
</glyph>
<glyph name="uni00B5" format="1">
  <advance width="618"/>
  <unicode hex="00B5"/>
  <note>
    uni00B5
  </note>
  <outline>
    <contour>
      <point x="80" y="-249" type="line"/>
      <point x="134" y="43" type="line"/>
      <point x="163" y="19"/>
      <point x="206" y="0"/>
      <point x="271" y="0" type="curve" smooth="yes"/>
      <point x="498" y="0"/>
      <point x="495" y="-3"/>
      <point x="536" y="227" type="curve" smooth="yes"/>
      <point x="584" y="500" type="line"/>
      <point x="494" y="500" type="line"/>
      <point x="447" y="233" type="line" smooth="yes"/>
      <point x="422" y="93"/>
      <point x="418" y="90"/>
      <point x="275" y="90" type="curve" smooth="yes"/>
      <point x="138" y="90"/>
      <point x="165" y="233"/>
      <point x="165" y="233" type="curve"/>
      <point x="212" y="500" type="line"/>
      <point x="122" y="500" type="line"/>
      <point x="-10" y="-249" type="line"/>
    </contour>
  </outline>
</glyph>
<glyph name="paragraph" format="1">
  <advance width="618"/>
  <unicode hex="00B6"/>
  <note>
    paragraph
  </note>
  <outline>
    <contour>
      <point x="349" y="0" type="line"/>
      <point x="465" y="660" type="line"/>
      <point x="528" y="660" type="line"/>
      <point x="412" y="0" type="line"/>
      <point x="496" y="0" type="line"/>
      <point x="628" y="750" type="line"/>
      <point x="349" y="750" type="line" smooth="yes"/>
      <point x="163" y="750"/>
      <point x="129" y="537"/>
      <point x="128" y="534" type="curve" smooth="yes"/>
      <point x="129" y="537"/>
      <point x="95" y="330"/>
      <point x="281" y="330" type="curve" smooth="yes"/>
      <point x="323" y="330" type="line"/>
      <point x="265" y="0" type="line"/>
    </contour>
  </outline>
</glyph>
<glyph name="uni00B9" format="1">
  <advance width="618"/>
  <unicode hex="00B9"/>
  <note>
    uni00B9
  </note>
  <outline>
    <contour>
      <point x="443" y="300" type="line"/>
      <point x="522" y="750" type="line"/>
      <point x="417" y="750" type="line"/>
      <point x="194" y="539" type="line"/>
      <point x="306" y="539" type="line"/>
      <point x="416" y="646" type="line"/>
      <point x="354" y="300" type="line"/>
    </contour>
  </outline>
</glyph>
<glyph name="AE" format="1">
  <advance width="618"/>
  <unicode hex="00C6"/>
  <note>
    AE
  </note>
  <outline>
    <contour>
      <point x="127" y="0" type="line"/>
      <point x="213" y="205" type="line"/>
      <point x="301" y="205" type="line"/>
      <point x="265" y="0" type="line"/>
      <point x="496" y="0" type="line"/>
      <point x="512" y="90" type="line"/>
      <point x="371" y="90" type="line"/>
      <point x="413" y="330" type="line"/>
      <point x="509" y="330" type="line"/>
      <point x="525" y="420" type="line"/>
      <point x="429" y="420" type="line"/>
      <point x="471" y="660" type="line"/>
      <point x="612" y="660" type="line"/>
      <point x="628" y="750" type="line"/>
      <point x="347" y="750" type="line"/>
      <point x="33" y="0" type="line"/>
    </contour>
    <contour>
      <point x="365" y="564" type="line"/>
      <point x="317" y="295" type="line"/>
      <point x="251" y="295" type="line"/>
    </contour>
  </outline>
</glyph>
<glyph name="Thorn" format="1">
  <advance width="618"/>
  <unicode hex="00DE"/>
  <note>
    Thorn
  </note>
  <outline>
    <contour>
      <point x="124" y="0" type="line"/>
      <point x="168" y="251" type="line"/>
      <point x="312" y="251" type="line" smooth="yes"/>
      <point x="542" y="251"/>
      <point x="577" y="458"/>
      <point x="577" y="461" type="curve" smooth="yes"/>
      <point x="577" y="458"/>
      <point x="608" y="660"/>
      <point x="378" y="660" type="curve" smooth="yes"/>
      <point x="240" y="660" type="line"/>
      <point x="256" y="750" type="line"/>
      <point x="166" y="750" type="line"/>
      <point x="34" y="0" type="line"/>
    </contour>
    <contour>
      <point x="224" y="570" type="line"/>
      <point x="369" y="570" type="line" smooth="yes"/>
      <point x="509" y="570"/>
      <point x="486" y="452"/>
      <point x="485" y="449" type="curve" smooth="yes"/>
      <point x="486" y="452"/>
      <point x="462" y="341"/>
      <point x="322" y="341" type="curve" smooth="yes"/>
      <point x="184" y="341" type="line"/>
    </contour>
  </outline>
</glyph>
<glyph name="germandbls" format="1">
  <advance width="618"/>
  <unicode hex="00DF"/>
  <note>
    germandbls
  </note>
  <outline>
    <contour>
      <point x="135" y="0" type="line"/>
      <point x="232" y="549" type="line" smooth="yes"/>
      <point x="244" y="619"/>
      <point x="303" y="660"/>
      <point x="377" y="660" type="curve" smooth="yes"/>
      <point x="443" y="660"/>
      <point x="483" y="625"/>
      <point x="471" y="558" type="curve" smooth="yes"/>
      <point x="458" y="485"/>
      <point x="399" y="444"/>
      <point x="329" y="444" type="curve"/>
      <point x="320" y="354" type="line"/>
      <point x="409" y="354"/>
      <point x="450" y="315"/>
      <point x="435" y="228" type="curve" smooth="yes"/>
      <point x="419" y="135"/>
      <point x="357" y="90"/>
      <point x="267" y="90" type="curve"/>
      <point x="257" y="0" type="line"/>
      <point x="397" y="0"/>
      <point x="502" y="99"/>
      <point x="523" y="216" type="curve" smooth="yes"/>
      <point x="544" y="337"/>
      <point x="483" y="366"/>
      <point x="464" y="393" type="curve"/>
      <point x="498" y="426"/>
      <point x="544" y="465"/>
      <point x="558" y="546" type="curve" smooth="yes"/>
      <point x="580" y="669"/>
      <point x="523" y="750"/>
      <point x="380" y="750" type="curve" smooth="yes"/>
      <point x="243" y="750"/>
      <point x="164" y="675"/>
      <point x="143" y="555" type="curve" smooth="yes"/>
      <point x="45" y="0" type="line"/>
    </contour>
  </outline>
</glyph>
<glyph name="ae" format="1">
  <advance width="618"/>
  <unicode hex="00E6"/>
  <note>
    ae
  </note>
  <outline>
    <contour>
      <point x="496" y="0" type="line"/>
      <point x="509" y="74" type="line"/>
      <point x="443" y="74" type="line" smooth="yes"/>
      <point x="322" y="74"/>
      <point x="326" y="89"/>
      <point x="345" y="199" type="curve" smooth="yes"/>
      <point x="346" y="207" type="line"/>
      <point x="532" y="207" type="line"/>
      <point x="539" y="247" type="line" smooth="yes"/>
      <point x="584" y="497"/>
      <point x="576" y="500"/>
      <point x="443" y="500" type="curve" smooth="yes"/>
      <point x="380" y="500"/>
      <point x="352" y="503"/>
      <point x="328" y="471" type="curve"/>
      <point x="312" y="486"/>
      <point x="293" y="500"/>
      <point x="253" y="500" type="curve" smooth="yes"/>
      <point x="181" y="500"/>
      <point x="150" y="470"/>
      <point x="109" y="440" type="curve"/>
      <point x="139" y="373" type="line"/>
      <point x="181" y="403"/>
      <point x="206" y="414"/>
      <point x="250" y="414" type="curve" smooth="yes"/>
      <point x="295" y="414"/>
      <point x="291" y="403"/>
      <point x="280" y="343" type="curve" smooth="yes"/>
      <point x="272" y="293" type="line"/>
      <point x="219" y="293" type="line" smooth="yes"/>
      <point x="109" y="293"/>
      <point x="81" y="269"/>
      <point x="60" y="146" type="curve" smooth="yes"/>
      <point x="39" y="31"/>
      <point x="64" y="0"/>
      <point x="174" y="0" type="curve" smooth="yes"/>
    </contour>
    <contour>
      <point x="140" y="74"/>
      <point x="122" y="79"/>
      <point x="131" y="134" type="curve" smooth="yes"/>
      <point x="142" y="195"/>
      <point x="170" y="207"/>
      <point x="211" y="207" type="curve" smooth="yes"/>
      <point x="256" y="207" type="line"/>
      <point x="233" y="74" type="line"/>
      <point x="181" y="74" type="line" smooth="yes"/>
    </contour>
    <contour>
      <point x="372" y="351" type="line" smooth="yes"/>
      <point x="381" y="405"/>
      <point x="391" y="414"/>
      <point x="440" y="414" type="curve" smooth="yes"/>
      <point x="497" y="414"/>
      <point x="494" y="411"/>
      <point x="474" y="296" type="curve"/>
      <point x="362" y="293" type="line"/>
    </contour>
  </outline>
</glyph>
<glyph name="thorn" format="1">
  <advance width="618"/>
  <unicode hex="00FE"/>
  <note>
    thorn
  </note>
  <outline>
    <contour>
      <point x="80" y="-250" type="line"/>
      <point x="140" y="93" type="line"/>
      <point x="140" y="93"/>
      <point x="136" y="45"/>
      <point x="279" y="45" type="curve" smooth="yes"/>
      <point x="506" y="45"/>
      <point x="541" y="253"/>
      <point x="541" y="256" type="curve" smooth="yes"/>
      <point x="541" y="253"/>
      <point x="572" y="455"/>
      <point x="339" y="455" type="curve" smooth="yes"/>
      <point x="202" y="455"/>
      <point x="197" y="413"/>
      <point x="197" y="413" type="curve"/>
      <point x="256" y="750" type="line"/>
      <point x="166" y="750" type="line"/>
      <point x="-10" y="-250" type="line"/>
    </contour>
    <contour>
      <point x="146" y="135"/>
      <point x="156" y="183"/>
      <point x="156" y="183" type="curve"/>
      <point x="180" y="317" type="line"/>
      <point x="180" y="317"/>
      <point x="192" y="365"/>
      <point x="336" y="365" type="curve" smooth="yes"/>
      <point x="472" y="365"/>
      <point x="449" y="247"/>
      <point x="449" y="244" type="curve" smooth="yes"/>
      <point x="449" y="247"/>
      <point x="426" y="135"/>
      <point x="282" y="135" type="curve" smooth="yes"/>
    </contour>
  </outline>
</glyph>
<glyph name="Eng" format="1">
  <advance width="618"/>
  <unicode hex="014A"/>
  <outline>
    <contour>
      <point x="410" y="-189"/>
      <point x="477" y="-88"/>
      <point x="496" y="0" type="curve"/>
      <point x="397" y="0" type="line"/>
      <point x="407" y="-60"/>
      <point x="330" y="-94"/>
      <point x="270" y="-97" type="curve"/>
      <point x="252" y="-187" type="line"/>
    </contour>
    <component base="N"/>
  </outline>
</glyph>
<glyph name="eng" format="1">
  <advance width="618"/>
  <unicode hex="014B"/>
  <outline>
    <contour>
      <point x="411" y="-189"/>
      <point x="477" y="-88"/>
      <point x="496" y="0" type="curve"/>
      <point x="407" y="0" type="line"/>
      <point x="391" y="-88"/>
      <point x="331" y="-94"/>
      <point x="271" y="-97" type="curve"/>
      <point x="253" y="-187" type="line"/>
    </contour>
    <component base="n"/>
  </outline>
</glyph>
<glyph name="OE" format="1">
  <advance width="618"/>
  <unicode hex="0152"/>
  <note>
    OE
  </note>
  <outline>
    <contour>
      <point x="219" y="0"/>
      <point x="242" y="-1"/>
      <point x="269" y="11" type="curve"/>
      <point x="263" y="0" type="line"/>
      <point x="496" y="0" type="line"/>
      <point x="512" y="90" type="line"/>
      <point x="370" y="90" type="line"/>
      <point x="412" y="330" type="line"/>
      <point x="508" y="330" type="line"/>
      <point x="524" y="420" type="line"/>
      <point x="428" y="420" type="line"/>
      <point x="470" y="660" type="line"/>
      <point x="612" y="660" type="line"/>
      <point x="628" y="750" type="line"/>
      <point x="396" y="750" type="line"/>
      <point x="391" y="736" type="line"/>
      <point x="382" y="748"/>
      <point x="345" y="750"/>
      <point x="320" y="750" type="curve" smooth="yes"/>
      <point x="253" y="750"/>
      <point x="167" y="753"/>
      <point x="101" y="381" type="curve" smooth="yes"/>
      <point x="34" y="3"/>
      <point x="127" y="0"/>
      <point x="200" y="0" type="curve" smooth="yes"/>
    </contour>
    <contour>
      <point x="187" y="90"/>
      <point x="139" y="87"/>
      <point x="189" y="369" type="curve" smooth="yes"/>
      <point x="240" y="657"/>
      <point x="293" y="660"/>
      <point x="317" y="660" type="curve" smooth="yes"/>
      <point x="331" y="660"/>
      <point x="381" y="663"/>
      <point x="331" y="381" type="curve" smooth="yes"/>
      <point x="280" y="93"/>
      <point x="233" y="90"/>
      <point x="204" y="90" type="curve" smooth="yes"/>
    </contour>
  </outline>
</glyph>
<glyph name="oe" format="1">
  <advance width="618"/>
  <unicode hex="0153"/>
  <note>
    oe
  </note>
  <outline>
    <contour>
      <point x="229" y="0"/>
      <point x="260" y="-2"/>
      <point x="284" y="18" type="curve"/>
      <point x="313" y="12"/>
      <point x="377" y="0"/>
      <point x="499" y="0" type="curve"/>
      <point x="509" y="74" type="line"/>
      <point x="442" y="74" type="line" smooth="yes"/>
      <point x="320" y="74"/>
      <point x="326" y="91"/>
      <point x="345" y="199" type="curve" smooth="yes"/>
      <point x="346" y="207" type="line"/>
      <point x="532" y="207" type="line"/>
      <point x="539" y="247" type="line" smooth="yes"/>
      <point x="584" y="497"/>
      <point x="576" y="500"/>
      <point x="442" y="500" type="curve" smooth="yes"/>
      <point x="398" y="500"/>
      <point x="373" y="498"/>
      <point x="348" y="486" type="curve"/>
      <point x="332" y="484"/>
      <point x="303" y="500"/>
      <point x="248" y="500" type="curve" smooth="yes"/>
      <point x="119" y="500"/>
      <point x="123" y="503"/>
      <point x="79" y="256" type="curve" smooth="yes"/>
      <point x="34" y="3"/>
      <point x="37" y="0"/>
      <point x="172" y="0" type="curve" smooth="yes"/>
    </contour>
    <contour>
      <point x="118" y="74"/>
      <point x="123" y="87"/>
      <point x="151" y="244" type="curve" smooth="yes"/>
      <point x="180" y="407"/>
      <point x="194" y="414"/>
      <point x="245" y="414" type="curve" smooth="yes"/>
      <point x="296" y="414"/>
      <point x="293" y="413"/>
      <point x="265" y="256" type="curve" smooth="yes"/>
      <point x="236" y="93"/>
      <point x="230" y="74"/>
      <point x="173" y="74" type="curve" smooth="yes"/>
    </contour>
    <contour>
      <point x="372" y="351" type="line" smooth="yes"/>
      <point x="381" y="405"/>
      <point x="390" y="414"/>
      <point x="439" y="414" type="curve" smooth="yes"/>
      <point x="496" y="414"/>
      <point x="493" y="411"/>
      <point x="473" y="296" type="curve"/>
      <point x="362" y="293" type="line"/>
    </contour>
  </outline>
</glyph>
<glyph name="gravecomb" format="1">
  <advance width="618"/>
  <unicode hex="0300"/>
  <outline>
    <contour>
      <point x="390" y="545" type="line" smooth="yes"/>
      <point x="402" y="545"/>
      <point x="406" y="551"/>
      <point x="407" y="560" type="curve"/>
      <point x="414" y="608"/>
      <point x="359" y="663"/>
      <point x="313" y="715" type="curve"/>
      <point x="316" y="717"/>
      <point x="284" y="750"/>
      <point x="254" y="750" type="curve" smooth="yes"/>
      <point x="253" y="750" type="line" smooth="yes"/>
      <point x="235" y="750"/>
      <point x="221" y="736"/>
      <point x="218" y="721" type="curve" smooth="yes"/>
      <point x="213" y="688"/>
      <point x="238" y="652"/>
      <point x="240" y="654" type="curve"/>
      <point x="291" y="602"/>
      <point x="344" y="545"/>
      <point x="388" y="545" type="curve" smooth="yes"/>
    </contour>
    <contour>
      <point x="352" y="500" type="move" name="_top"/>
    </contour>
  </outline>
</glyph>
<glyph name="macroncomb" format="1">
  <advance width="618"/>
  <unicode hex="0304"/>
  <outline>
    <contour>
      <point x="557" y="568" type="line"/>
      <point x="573" y="658" type="line"/>
      <point x="189" y="658" type="line"/>
      <point x="173" y="568" type="line"/>
    </contour>
    <contour>
      <point x="353" y="500" type="move" name="_top"/>
    </contour>
  </outline>
</glyph>
<glyph name="brevecomb" format="1">
  <advance width="618"/>
  <unicode hex="0306"/>
  <outline>
    <contour>
      <point x="514" y="545"/>
      <point x="573" y="667"/>
      <point x="588" y="747" type="curve"/>
      <point x="499" y="753" type="line"/>
      <point x="485" y="673"/>
      <point x="425" y="628"/>
      <point x="369" y="628" type="curve" smooth="yes"/>
      <point x="319" y="628"/>
      <point x="282" y="667"/>
      <point x="296" y="747" type="curve"/>
      <point x="206" y="753" type="line"/>
      <point x="192" y="677"/>
      <point x="214" y="545"/>
      <point x="367" y="545" type="curve" smooth="yes"/>
    </contour>
    <contour>
      <point x="352" y="500" type="move" name="_top"/>
    </contour>
  </outline>
</glyph>
<glyph name="ringcomb" format="1">
  <advance width="618"/>
  <unicode hex="030A"/>
  <outline>
    <contour>
      <point x="489" y="545"/>
      <point x="505" y="651"/>
      <point x="505" y="654" type="curve" smooth="yes"/>
      <point x="505" y="651"/>
      <point x="519" y="750"/>
      <point x="391" y="750" type="curve" smooth="yes"/>
      <point x="271" y="750"/>
      <point x="255" y="654"/>
      <point x="255" y="654" type="curve" smooth="yes"/>
      <point x="254" y="648"/>
      <point x="241" y="545"/>
      <point x="367" y="545" type="curve" smooth="yes"/>
    </contour>
    <contour>
      <point x="307" y="608"/>
      <point x="318" y="651"/>
      <point x="318" y="654" type="curve" smooth="yes"/>
      <point x="318" y="651"/>
      <point x="327" y="688"/>
      <point x="393" y="688" type="curve" smooth="yes"/>
      <point x="451" y="688"/>
      <point x="441" y="645"/>
      <point x="440" y="642" type="curve" smooth="yes"/>
      <point x="441" y="645"/>
      <point x="431" y="608"/>
      <point x="366" y="608" type="curve" smooth="yes"/>
    </contour>
    <contour>
      <point x="352" y="500" type="move" name="_top"/>
    </contour>
  </outline>
</glyph>
<glyph name="caroncomb" format="1">
  <advance width="618"/>
  <unicode hex="030C"/>
  <outline>
    <contour>
      <point x="407" y="545" type="line"/>
      <point x="589" y="750" type="line"/>
      <point x="491" y="750" type="line"/>
      <point x="373" y="628" type="line"/>
      <point x="301" y="750" type="line"/>
      <point x="206" y="750" type="line"/>
      <point x="317" y="545" type="line"/>
    </contour>
    <contour>
      <point x="353" y="500" type="move" name="_top"/>
    </contour>
  </outline>
</glyph>
<glyph name="cedillacomb" format="1">
  <advance width="618"/>
  <unicode hex="0327"/>
  <outline>
    <contour>
      <point x="223" y="-250" type="line" smooth="yes"/>
      <point x="291" y="-250"/>
      <point x="360" y="-253"/>
      <point x="378" y="-150" type="curve" smooth="yes"/>
      <point x="397" y="-43"/>
      <point x="325" y="-39"/>
      <point x="303" y="-39" type="curve" smooth="yes"/>
      <point x="303" y="-39" type="line"/>
      <point x="315" y="28" type="line"/>
      <point x="225" y="28" type="line"/>
      <point x="202" y="-102" type="line"/>
      <point x="249" y="-102" type="line" smooth="yes"/>
      <point x="297" y="-102"/>
      <point x="313" y="-109"/>
      <point x="308" y="-138" type="curve" smooth="yes"/>
      <point x="301" y="-173"/>
      <point x="271" y="-188"/>
      <point x="228" y="-188" type="curve" smooth="yes"/>
      <point x="121" y="-188" type="line"/>
      <point x="110" y="-250" type="line"/>
    </contour>
    <contour>
      <point x="264" y="0" type="move" name="_bottom"/>
    </contour>
  </outline>
</glyph>
<glyph name="slashshortcomb" format="1">
  <advance width="618"/>
  <unicode hex="0337"/>
  <outline>
    <contour>
      <point x="529" y="344" type="line"/>
      <point x="544" y="434" type="line"/>
      <point x="90" y="164" type="line"/>
      <point x="76" y="74" type="line"/>
    </contour>
    <contour>
      <point x="308" y="250" type="move" name="_center"/>
    </contour>
  </outline>
</glyph>
<glyph name="slashlongcomb" format="1">
  <advance width="618"/>
  <unicode hex="0338"/>
  <outline>
    <contour>
      <point x="148" y="-125" type="line"/>
      <point x="568" y="625" type="line"/>
      <point x="470" y="625" type="line"/>
      <point x="50" y="-125" type="line"/>
    </contour>
    <contour>
      <point x="309" y="250" type="move" name="_center"/>
    </contour>
  </outline>
</glyph>
<glyph name="emdash" format="1">
  <advance width="618"/>
  <unicode hex="2014"/>
  <note>
    emdash
  </note>
  <outline>
    <contour>
      <point x="624" y="285" type="line"/>
      <point x="640" y="375" type="line"/>
      <point x="22" y="375" type="line"/>
      <point x="6" y="285" type="line"/>
    </contour>
  </outline>
</glyph>
<glyph name="ellipsis" format="1">
  <advance width="618"/>
  <unicode hex="2026"/>
  <note>
    ellipsis
  </note>
  <outline>
    <contour>
      <point x="573" y="0"/>
      <point x="618" y="45"/>
      <point x="618" y="90" type="curve" smooth="yes"/>
      <point x="618" y="135"/>
      <point x="573" y="180"/>
      <point x="528" y="180" type="curve" smooth="yes"/>
      <point x="483" y="180"/>
      <point x="438" y="135"/>
      <point x="438" y="90" type="curve" smooth="yes"/>
      <point x="438" y="45"/>
      <point x="483" y="0"/>
      <point x="528" y="0" type="curve" smooth="yes"/>
    </contour>
    <contour>
      <point x="135" y="0"/>
      <point x="180" y="45"/>
      <point x="180" y="90" type="curve" smooth="yes"/>
      <point x="180" y="135"/>
      <point x="135" y="180"/>
      <point x="90" y="180" type="curve" smooth="yes"/>
      <point x="45" y="180"/>
      <point x="0" y="135"/>
      <point x="0" y="90" type="curve" smooth="yes"/>
      <point x="0" y="45"/>
      <point x="45" y="0"/>
      <point x="90" y="0" type="curve" smooth="yes"/>
    </contour>
    <contour>
      <point x="354" y="0"/>
      <point x="399" y="45"/>
      <point x="399" y="90" type="curve" smooth="yes"/>
      <point x="399" y="135"/>
      <point x="354" y="180"/>
      <point x="309" y="180" type="curve" smooth="yes"/>
      <point x="264" y="180"/>
      <point x="219" y="135"/>
      <point x="219" y="90" type="curve" smooth="yes"/>
      <point x="219" y="45"/>
      <point x="264" y="0"/>
      <point x="309" y="0" type="curve" smooth="yes"/>
    </contour>
  </outline>
</glyph>
<glyph name="euro" format="1">
  <advance width="618"/>
  <unicode hex="20AC"/>
  <note>
    Euro
  </note>
  <outline>
    <contour>
      <point x="176" y="250" type="line"/>
      <point x="402" y="250" type="line"/>
      <point x="402" y="340" type="line"/>
      <point x="168" y="340" type="line"/>
      <point x="168" y="410" type="line"/>
      <point x="402" y="410" type="line"/>
      <point x="402" y="500" type="line"/>
      <point x="176" y="500" type="line"/>
      <point x="138" y="375" type="line"/>
    </contour>
    <component base="C"/>
  </outline>
</glyph>
<glyph name="uni2581" format="1">
  <advance width="618"/>
  <unicode hex="2581"/>
  <note>
    uni2581
  </note>
  <outline>
    <contour>
      <point x="618" y="-375" type="line"/>
      <point x="618" y="-219" type="line"/>
      <point x="0" y="-219" type="line"/>
      <point x="0" y="-375" type="line"/>
    </contour>
  </outline>
</glyph>
<glyph name="lfblock" format="1">
  <advance width="618"/>
  <unicode hex="258C"/>
  <note>
    lfblock
  </note>
  <outline>
    <contour>
      <point x="309" y="-375" type="line"/>
      <point x="309" y="875" type="line"/>
      <point x="0" y="875" type="line"/>
      <point x="0" y="-375" type="line"/>
    </contour>
  </outline>
</glyph>
<glyph name="rtblock" format="1">
  <advance width="618"/>
  <unicode hex="2590"/>
  <note>
    rtblock
  </note>
  <outline>
    <contour>
      <point x="618" y="-375" type="line"/>
      <point x="618" y="875" type="line"/>
      <point x="308" y="875" type="line"/>
      <point x="308" y="-375" type="line"/>
    </contour>
  </outline>
</glyph>
<glyph name="uni25C2" format="1">
  <advance width="618"/>
  <unicode hex="25C2"/>
  <note>
    uni25C2
  </note>
  <outline>
    <contour>
      <point x="484" y="549" type="line"/>
      <point x="134" y="373" type="line"/>
      <point x="484" y="199" type="line"/>
    </contour>
  </outline>
</glyph>
<glyph name="H18533" format="1">
  <advance width="618"/>
  <unicode hex="25CF"/>
  <note>
    H18533
  </note>
  <outline>
    <contour>
      <point x="309" y="125"/>
      <point x="559" y="125"/>
      <point x="559" y="375" type="curve" smooth="yes"/>
      <point x="559" y="625"/>
      <point x="309" y="625"/>
      <point x="309" y="625" type="curve" smooth="yes"/>
      <point x="309" y="625"/>
      <point x="59" y="625"/>
      <point x="59" y="375" type="curve" smooth="yes"/>
      <point x="59" y="125"/>
      <point x="309" y="125"/>
      <point x="309" y="125" type="curve" smooth="yes"/>
    </contour>
  </outline>
</glyph>
<glyph name="checkmark" format="1">
  <advance width="618"/>
  <unicode hex="2713"/>
  <outline>
    <contour>
      <point x="647" y="416" type="line"/>
      <point x="592" y="480" type="line"/>
      <point x="178" y="127" type="line"/>
      <point x="62" y="264" type="line"/>
      <point x="-8" y="202" type="line"/>
      <point x="160" y="0" type="line"/>
    </contour>
  </outline>
</glyph>
<glyph name="uniE0B3" format="1">
  <advance width="618"/>
  <unicode hex="E0B3"/>
  <note>
    uniE0B3
  </note>
  <outline>
    <contour>
      <point x="650" y="-331" type="line"/>
      <point x="108" y="274" type="line"/>
      <point x="650" y="880" type="line"/>
      <point x="594" y="936" type="line"/>
      <point x="0" y="274" type="line"/>
      <point x="594" y="-388" type="line"/>
    </contour>
  </outline>
</glyph>
